<svg width="1200" height="675" viewBox="0 0 1200 675" fill="none" xmlns="http://www.w3.org/2000/svg">
  <rect width="1200" height="675" fill="#030014"/>
  <radialGradient id="g1" cx="0" cy="0" r="1" gradientUnits="userSpaceOnUse" gradientTransform="translate(930 110) rotate(139.399) scale(592 466)">
    <stop stop-color="#22D3EE" stop-opacity="0.42"/>
    <stop offset="1" stop-color="#030014" stop-opacity="0"/>
  </radialGradient>
  <radialGradient id="g2" cx="0" cy="0" r="1" gradientUnits="userSpaceOnUse" gradientTransform="translate(188 570) rotate(-31.2677) scale(522 356)">
    <stop stop-color="#7042F8" stop-opacity="0.52"/>
    <stop offset="1" stop-color="#030014" stop-opacity="0"/>
  </radialGradient>
  <rect width="1200" height="675" fill="url(#g1)"/>
  <rect width="1200" height="675" fill="url(#g2)"/>
  <g opacity="0.3">
    <path d="M0 120H1200" stroke="#7042F8" stroke-width="1"/>
    <path d="M0 240H1200" stroke="#7042F8" stroke-width="1"/>
    <path d="M0 360H1200" stroke="#7042F8" stroke-width="1"/>
    <path d="M0 480H1200" stroke="#7042F8" stroke-width="1"/>
    <path d="M0 600H1200" stroke="#7042F8" stroke-width="1"/>
    <path d="M150 0V675" stroke="#7042F8" stroke-width="1"/>
    <path d="M300 0V675" stroke="#7042F8" stroke-width="1"/>
    <path d="M450 0V675" stroke="#7042F8" stroke-width="1"/>
    <path d="M600 0V675" stroke="#7042F8" stroke-width="1"/>
    <path d="M750 0V675" stroke="#7042F8" stroke-width="1"/>
    <path d="M900 0V675" stroke="#7042F8" stroke-width="1"/>
    <path d="M1050 0V675" stroke="#7042F8" stroke-width="1"/>
  </g>
  <rect x="95" y="83" width="1010" height="510" rx="34" fill="#0B0620" fill-opacity="0.82" stroke="white" stroke-opacity="0.12"/>
  <rect x="135" y="125" width="245" height="86" rx="20" fill="#120B2E" stroke="#7042F8" stroke-opacity="0.45"/>
  <rect x="415" y="125" width="245" height="86" rx="20" fill="#081A25" stroke="#22D3EE" stroke-opacity="0.45"/>
  <rect x="695" y="125" width="245" height="86" rx="20" fill="#120B2E" stroke="#7042F8" stroke-opacity="0.45"/>
  <text x="160" y="158" fill="#A78BFA" font-family="Inter, Arial" font-size="18" font-weight="700">REAL-TIME KPI</text>
  <text x="440" y="158" fill="#67E8F9" font-family="Inter, Arial" font-size="18" font-weight="700">ENTERPRISE DATA</text>
  <text x="720" y="158" fill="#A78BFA" font-family="Inter, Arial" font-size="18" font-weight="700">MONITORING HUB</text>
  <text x="160" y="191" fill="white" font-family="Inter, Arial" font-size="28" font-weight="800">98.7%</text>
  <text x="440" y="191" fill="white" font-family="Inter, Arial" font-size="28" font-weight="800">12 Modules</text>
  <text x="720" y="191" fill="white" font-family="Inter, Arial" font-size="28" font-weight="800">On Going</text>
  <rect x="135" y="252" width="460" height="260" rx="24" fill="#070318" stroke="white" stroke-opacity="0.1"/>
  <rect x="635" y="252" width="330" height="260" rx="24" fill="#070318" stroke="white" stroke-opacity="0.1"/>
  <path d="M172 448C218 392 249 421 283 362C325 290 373 389 414 326C455 264 496 310 558 292" stroke="#22D3EE" stroke-width="8" stroke-linecap="round"/>
  <path d="M172 480C232 448 251 470 297 432C349 390 386 430 432 386C482 338 512 370 558 342" stroke="#7042F8" stroke-width="8" stroke-linecap="round"/>
  <text x="165" y="300" fill="white" font-family="Inter, Arial" font-size="24" font-weight="800">Operational Performance</text>
  <text x="665" y="300" fill="white" font-family="Inter, Arial" font-size="24" font-weight="800">Control Center</text>
  <circle cx="710" cy="375" r="45" fill="#22D3EE" fill-opacity="0.16" stroke="#22D3EE" stroke-width="6"/>
  <circle cx="818" cy="375" r="45" fill="#7042F8" fill-opacity="0.18" stroke="#7042F8" stroke-width="6"/>
  <circle cx="765" cy="455" r="45" fill="#F0ABFC" fill-opacity="0.12" stroke="#A78BFA" stroke-width="6"/>
  <text x="695" y="382" fill="#E0F2FE" font-family="Inter, Arial" font-size="18" font-weight="800">CBS</text>
  <text x="802" y="382" fill="#EDE9FE" font-family="Inter, Arial" font-size="18" font-weight="800">MIS</text>
  <text x="744" y="462" fill="#F5F3FF" font-family="Inter, Arial" font-size="18" font-weight="800">KPI</text>
  <text x="135" y="565" fill="#67E8F9" font-family="Inter, Arial" font-size="22" font-weight="800" letter-spacing="4">DASHBOARD MONITORING SYSTEM</text>
</svg>