<svg width="1200" height="675" viewBox="0 0 1200 675" fill="none" xmlns="http://www.w3.org/2000/svg">
  <rect width="1200" height="675" fill="#030014"/>
  <radialGradient id="a" cx="0" cy="0" r="1" gradientUnits="userSpaceOnUse" gradientTransform="translate(220 120) rotate(42.8) scale(520 390)">
    <stop stop-color="#7042F8" stop-opacity="0.48"/>
    <stop offset="1" stop-color="#030014" stop-opacity="0"/>
  </radialGradient>
  <radialGradient id="b" cx="0" cy="0" r="1" gradientUnits="userSpaceOnUse" gradientTransform="translate(940 520) rotate(-142.9) scale(640 430)">
    <stop stop-color="#22D3EE" stop-opacity="0.42"/>
    <stop offset="1" stop-color="#030014" stop-opacity="0"/>
  </radialGradient>
  <rect width="1200" height="675" fill="url(#a)"/>
  <rect width="1200" height="675" fill="url(#b)"/>
  <g opacity="0.25">
    <circle cx="600" cy="337" r="255" stroke="#7042F8" stroke-width="2"/>
    <circle cx="600" cy="337" r="190" stroke="#22D3EE" stroke-width="2"/>
    <circle cx="600" cy="337" r="125" stroke="#7042F8" stroke-width="2"/>
  </g>
  <rect x="96" y="82" width="1008" height="512" rx="36" fill="#08041C" fill-opacity="0.84" stroke="white" stroke-opacity="0.12"/>
  <rect x="158" y="140" width="884" height="96" rx="24" fill="#10082D" stroke="#7042F8" stroke-opacity="0.5"/>
  <text x="194" y="180" fill="#A78BFA" font-family="Inter, Arial" font-size="18" font-weight="800" letter-spacing="5">IDENTITY ACCESS MANAGEMENT</text>
  <text x="194" y="214" fill="white" font-family="Inter, Arial" font-size="34" font-weight="900">SSO Server MCI</text>
  <g transform="translate(505 284)">
    <rect x="0" y="0" width="190" height="190" rx="46" fill="#0A1025" stroke="#22D3EE" stroke-opacity="0.55" stroke-width="3"/>
    <path d="M58 86V68C58 47.5655 74.5655 31 95 31C115.435 31 132 47.5655 132 68V86" stroke="#67E8F9" stroke-width="12" stroke-linecap="round"/>
    <rect x="47" y="82" width="96" height="78" rx="18" fill="#7042F8" fill-opacity="0.32" stroke="#A78BFA" stroke-width="6"/>
    <circle cx="95" cy="120" r="12" fill="#67E8F9"/>
    <path d="M95 132V148" stroke="#67E8F9" stroke-width="8" stroke-linecap="round"/>
  </g>
  <circle cx="298" cy="378" r="54" fill="#120B2E" stroke="#7042F8" stroke-width="4"/>
  <circle cx="902" cy="378" r="54" fill="#081A25" stroke="#22D3EE" stroke-width="4"/>
  <circle cx="600" cy="548" r="46" fill="#120B2E" stroke="#A78BFA" stroke-width="4"/>
  <path d="M352 378H505" stroke="#A78BFA" stroke-width="6" stroke-linecap="round" stroke-dasharray="14 14"/>
  <path d="M695 378H848" stroke="#67E8F9" stroke-width="6" stroke-linecap="round" stroke-dasharray="14 14"/>
  <path d="M600 474V502" stroke="#A78BFA" stroke-width="6" stroke-linecap="round" stroke-dasharray="14 14"/>
  <text x="270" y="384" fill="white" font-family="Inter, Arial" font-size="18" font-weight="800">APP</text>
  <text x="871" y="384" fill="white" font-family="Inter, Arial" font-size="18" font-weight="800">USER</text>
  <text x="579" y="554" fill="white" font-family="Inter, Arial" font-size="18" font-weight="800">API</text>
  <rect x="172" y="538" width="225" height="34" rx="17" fill="#22D3EE" fill-opacity="0.12" stroke="#22D3EE" stroke-opacity="0.35"/>
  <text x="198" y="561" fill="#67E8F9" font-family="Inter, Arial" font-size="15" font-weight="800">ON GOING DEVELOPMENT</text>
  <rect x="790" y="538" width="238" height="34" rx="17" fill="#7042F8" fill-opacity="0.16" stroke="#A78BFA" stroke-opacity="0.38"/>
  <text x="819" y="561" fill="#DDD6FE" font-family="Inter, Arial" font-size="15" font-weight="800">SECURE AUTH CENTER</text>
</svg>