<svg xmlns="http://www.w3.org/2000/svg" viewBox="0 0 96 96">
  <circle cx="48" cy="48" r="44" fill="#fff"/>
  <path d="M48 20A28 28 0 0148 76 28 28 0 0148 20z" fill="#fff"/>
  <path d="M69.36 42.63H50.4v-3.6c0-1.4.24-2.72.72-3.96a9.6 9.6 0 012.04-3.24 9.43 9.43 0 013.12-2.16c1.2-.52 2.52-.8 3.96-.8 1.36 0 2.64.24 3.84.72a9.58 9.58 0 013.16 2.04 9.68 9.68 0 012.16 3.12c.56 1.2.84 2.52.84 3.96v.36h-7.32c0-.96-.36-1.8-1.08-2.52-.72-.72-1.56-1.08-2.52-1.08-.96 0-1.8.36-2.52 1.08a3.44 3.44 0 00-1.08 2.52v3.96h13.68v24.12H44.88V42.63H50.4" fill="#4285F4"/>
  <path d="M26.64 42.63V39.03c0-1.4.24-2.72.72-3.96a9.6 9.6 0 012.04-3.24 9.43 9.43 0 013.12-2.16c1.2-.52 2.52-.8 3.96-.8V42.63H26.64z" fill="#EA4335"/>
  <path d="M36.48 42.63v24.12H26.64V42.63h9.84z" fill="#34A853"/>
  <path d="M36.48 42.63H50.4v24.12H36.48V42.63z" fill="#FBBC04"/>
</svg>