<svg xmlns="http://www.w3.org/2000/svg" viewBox="0 0 96 96" fill="none">
  <path d="M55.44 8H40.56L0 17.6V78.4L40.56 88H55.44V72H80V24H55.44V8Z" fill="#185ABD"/>
  <path d="M80 24H55.44V72H80V24Z" fill="#41A5EE"/>
  <path d="M55.44 24H80V36H55.44V24Z" fill="#2B7CD3"/>
  <path d="M55.44 36H80V48H55.44V36Z" fill="#185ABD"/>
  <path d="M55.44 48H80V60H55.44V48Z" fill="#2B7CD3"/>
  <path d="M55.44 60H80V72H55.44V60Z" fill="#185ABD"/>
  <path d="M60 32H76V34H60V32Z" fill="#fff" opacity="0.5"/>
  <path d="M60 38H76V40H60V38Z" fill="#fff" opacity="0.5"/>
  <path d="M60 44H76V46H60V44Z" fill="#fff" opacity="0.5"/>
  <path d="M60 50H76V52H60V50Z" fill="#fff" opacity="0.5"/>
  <path d="M60 56H72V58H60V56Z" fill="#fff" opacity="0.5"/>
  <text x="22" y="58" text-anchor="middle" font-family="Arial,Helvetica,sans-serif" font-weight="bold" font-size="30" fill="#fff">W</text>
</svg>